G04 ================== begin FILE IDENTIFICATION RECORD ==================*
G04 Layout Name:  SoilSensor.brd*
G04 Film Name:    DRILL_PLATED*
G04 File Format:  Gerber RS274X*
G04 File Origin:  Cadence Allegro 17.2-S081*
G04 Origin Date:  Thu May 19 18:14:44 2022*
G04 *
G04 Layer:  MANUFACTURING/NCLEGEND-1-2*
G04 Layer:  MANUFACTURING/NCDRILL_LEGEND*
G04 Layer:  MANUFACTURING/NCDRILL_FIGURE*
G04 *
G04 Offset:    (0.0000 0.0000)*
G04 Mirror:    No*
G04 Mode:      Positive*
G04 Rotation:  0*
G04 FullContactRelief:  No*
G04 UndefLineWidth:     0.1500*
G04 ================== end FILE IDENTIFICATION RECORD ====================*
%FSLAX25Y25*MOMM*%
%IR0*IPPOS*OFA0.00000B0.00000*MIA0B0*SFA1.00000B1.00000*%
%AMMACRO12*
1,1,.15,.1016,0.0*
20,1,.15,.1016,0.0,-.1016,0.0,0.0*
1,1,.15,-.1016,0.0*
1,1,.15,0.0,.1016*
20,1,.15,0.0,.1016,0.0,-.1016,0.0*
1,1,.15,0.0,-.1016*
%
%ADD12MACRO12*%
%AMMACRO11*
1,1,.15,.4,.4*
20,1,.15,.4,.4,.4,-.4,0.0*
1,1,.15,.4,-.4*
20,1,.15,.4,-.4,-.4,-.4,0.0*
1,1,.15,-.4,-.4*
20,1,.15,-.4,-.4,-.4,.4,0.0*
1,1,.15,-.4,.4*
20,1,.15,-.4,.4,.4,.4,0.0*
1,1,.15,.4,.4*
%
%ADD11MACRO11*%
%AMMACRO10*
1,1,.15,.9271,0.0*
20,1,.15,.9271,0.0,.46355,.802892,0.0*
1,1,.15,.46355,.802892*
20,1,.15,.46355,.802892,-.46355,.802892,0.0*
1,1,.15,-.46355,.802892*
20,1,.15,-.46355,.802892,-.9271,0.0,0.0*
1,1,.15,-.9271,0.0*
20,1,.15,-.9271,0.0,-.46355,-.802892,0.0*
1,1,.15,-.46355,-.802892*
20,1,.15,-.46355,-.802892,.46355,-.802892,0.0*
1,1,.15,.46355,-.802892*
20,1,.15,.46355,-.802892,.9271,0.0,0.0*
1,1,.15,.9271,0.0*
%
%ADD10MACRO10*%
%ADD13C,.15*%
G75*
%LPD*%
G75*
G54D10*
X-5133270Y8342500D03*
X-569360Y-6306800D03*
Y-5443200D03*
X-173120Y-6306800D03*
Y-5443200D03*
X223120Y-6306800D03*
Y-5443200D03*
X619360Y-6306800D03*
Y-5443200D03*
G54D11*
X-5133270Y8977500D03*
X-1200000Y-3500000D03*
X-1075000Y-4075000D03*
X-584500Y-5025000D03*
Y-4200000D03*
X-250000Y-4325000D03*
X25000Y-4925000D03*
X175000D03*
X525000Y-5100000D03*
X250000Y-4325000D03*
X675000Y-4650000D03*
Y-4400000D03*
X1200000Y-3500000D03*
G54D12*
X-5133270Y9612500D03*
X-120000Y-4625000D03*
X120000D03*
X0Y-4725000D03*
Y-4525000D03*
Y-4625000D03*
G54D13*
G01X-5995480Y10088750D02*
Y10406250D01*
X-5845860D01*
G01X-5900990Y10252800D02*
X-5995480D01*
G01X-5652950Y10406250D02*
X-5558470D01*
G01X-5605710D02*
Y10088750D01*
G01X-5652950D02*
X-5558470D01*
G01X-5267130Y10247500D02*
X-5188380D01*
Y10152250D01*
X-5212010Y10120490D01*
X-5239570Y10099330D01*
X-5278940Y10088750D01*
X-5318310Y10099330D01*
X-5345870Y10120490D01*
X-5369490Y10152250D01*
X-5385240Y10189290D01*
X-5393120Y10231620D01*
Y10268670D01*
X-5385240Y10300410D01*
X-5369490Y10337460D01*
X-5345870Y10369210D01*
X-5322250Y10390370D01*
X-5290750Y10406250D01*
X-5263190D01*
X-5231700Y10395670D01*
X-5208070Y10374500D01*
G01X-5062400Y10406250D02*
Y10178710D01*
X-5046660Y10131070D01*
X-5015160Y10099330D01*
X-4975790Y10088750D01*
X-4936420Y10099330D01*
X-4904920Y10131070D01*
X-4889180Y10178710D01*
Y10406250D01*
G01X-4739570Y10088750D02*
Y10406250D01*
X-4641150D01*
X-4609650Y10390370D01*
X-4589960Y10369210D01*
X-4582090Y10326870D01*
X-4589960Y10284540D01*
X-4613590Y10258090D01*
X-4641150Y10242200D01*
X-4739570D01*
G01X-4641150D02*
X-4582090Y10088750D01*
G01X-4267130D02*
X-4424610D01*
Y10406250D01*
X-4267130D01*
G01X-4330120Y10252800D02*
X-4424610D01*
G01X-4326190Y10723750D02*
X-4227760Y11041250D01*
X-4129330Y10723750D01*
G01X-4164770Y10834870D02*
X-4290760D01*
G01X-3991540Y11041250D02*
Y10723750D01*
X-3834060D01*
G01X-3676580Y11041250D02*
Y10723750D01*
X-3519100D01*
G01X-3054530Y11041250D02*
Y10813710D01*
X-3038790Y10766070D01*
X-3007290Y10734330D01*
X-2967920Y10723750D01*
X-2928550Y10734330D01*
X-2897050Y10766070D01*
X-2881310Y10813710D01*
Y11041250D01*
G01X-2743510Y10723750D02*
Y11041250D01*
X-2562410Y10723750D01*
Y11041250D01*
G01X-2385240D02*
X-2290760D01*
G01X-2338000D02*
Y10723750D01*
G01X-2385240D02*
X-2290760D01*
G01X-2023040Y11041250D02*
Y10723750D01*
G01X-2113590Y11041250D02*
X-1932490D01*
G01X-1790760Y10766070D02*
X-1759260Y10739620D01*
X-1723830Y10723750D01*
X-1692330D01*
X-1660840Y10739620D01*
X-1637210Y10766070D01*
X-1625400Y10803130D01*
X-1633270Y10840160D01*
X-1652960Y10871910D01*
X-1688400Y10893090D01*
X-1735640Y10903670D01*
X-1763200Y10924830D01*
X-1775010Y10961870D01*
X-1767130Y10998920D01*
X-1747450Y11025370D01*
X-1719890Y11041250D01*
X-1692330D01*
X-1664770Y11030670D01*
X-1641150Y11004210D01*
G01X-1176590Y10723750D02*
X-1078160Y11041250D01*
X-979730Y10723750D01*
G01X-1015170Y10834870D02*
X-1141160D01*
G01X-841940Y10723750D02*
Y11041250D01*
X-743520D01*
X-712020Y11025370D01*
X-692330Y11004210D01*
X-684460Y10961870D01*
X-692330Y10919540D01*
X-715960Y10893090D01*
X-743520Y10877200D01*
X-841940D01*
G01X-743520D02*
X-684460Y10723750D01*
G01X-369500D02*
X-526980D01*
Y11041250D01*
X-369500D01*
G01X-432490Y10887800D02*
X-526980D01*
G01X134440Y11041250D02*
X228920D01*
G01X181680D02*
Y10723750D01*
G01X134440D02*
X228920D01*
G01X406090D02*
Y11041250D01*
X587190Y10723750D01*
Y11041250D01*
G01X1024190Y10723750D02*
Y11041250D01*
X1126560Y10776670D01*
X1228930Y11041250D01*
Y10723750D01*
G01X1394280Y11041250D02*
X1488760D01*
G01X1441520D02*
Y10723750D01*
G01X1394280D02*
X1488760D01*
G01X1677740Y11041250D02*
Y10723750D01*
X1835220D01*
G01X1992700Y11041250D02*
Y10723750D01*
X2150180D01*
G01X2339160Y11041250D02*
X2433640D01*
G01X2386400D02*
Y10723750D01*
G01X2339160D02*
X2433640D01*
G01X2598990D02*
Y11041250D01*
X2701360Y10776670D01*
X2803730Y11041250D01*
Y10723750D01*
G01X3095060D02*
X2937580D01*
Y11041250D01*
X3095060D01*
G01X3032070Y10887800D02*
X2937580D01*
G01X3331280Y11041250D02*
Y10723750D01*
G01X3240730Y11041250D02*
X3421830D01*
G01X3724980Y10723750D02*
X3567500D01*
Y11041250D01*
X3724980D01*
G01X3661990Y10887800D02*
X3567500D01*
G01X3882460Y10723750D02*
Y11041250D01*
X3980880D01*
X4012380Y11025370D01*
X4032070Y11004210D01*
X4039940Y10961870D01*
X4032070Y10919540D01*
X4008440Y10893090D01*
X3980880Y10877200D01*
X3882460D01*
G01X3980880D02*
X4039940Y10723750D01*
G01X4193480Y10766070D02*
X4224980Y10739620D01*
X4260410Y10723750D01*
X4291910D01*
X4323400Y10739620D01*
X4347030Y10766070D01*
X4358840Y10803130D01*
X4350970Y10840160D01*
X4331280Y10871910D01*
X4295840Y10893090D01*
X4248600Y10903670D01*
X4221040Y10924830D01*
X4209230Y10961870D01*
X4217110Y10998920D01*
X4236790Y11025370D01*
X4264350Y11041250D01*
X4291910D01*
X4319470Y11030670D01*
X4343090Y11004210D01*
G01X-3999410Y11373750D02*
Y11691250D01*
X-3920680D01*
X-3889180Y11675370D01*
X-3865560Y11654210D01*
X-3845870Y11622460D01*
X-3830120Y11585410D01*
X-3826190Y11532500D01*
X-3830120Y11479580D01*
X-3845870Y11442540D01*
X-3865560Y11410780D01*
X-3889180Y11389620D01*
X-3920680Y11373750D01*
X-3999410D01*
G01X-3676580D02*
Y11691250D01*
X-3578160D01*
X-3546660Y11675370D01*
X-3526970Y11654210D01*
X-3519100Y11611870D01*
X-3526970Y11569540D01*
X-3550600Y11543090D01*
X-3578160Y11527200D01*
X-3676580D01*
G01X-3578160D02*
X-3519100Y11373750D01*
G01X-3330120Y11691250D02*
X-3235640D01*
G01X-3282880D02*
Y11373750D01*
G01X-3330120D02*
X-3235640D01*
G01X-3046660Y11691250D02*
Y11373750D01*
X-2889180D01*
G01X-2731700Y11691250D02*
Y11373750D01*
X-2574220D01*
G01X-1936430Y11664790D02*
X-1960050Y11680670D01*
X-1987600Y11691250D01*
X-2019100D01*
X-2054540Y11675370D01*
X-2082090Y11648920D01*
X-2101780Y11617160D01*
X-2117530Y11564250D01*
X-2121470Y11516620D01*
X-2113590Y11469000D01*
X-2101780Y11437250D01*
X-2078160Y11405490D01*
X-2050600Y11384330D01*
X-2023040Y11373750D01*
X-1995480D01*
X-1967920Y11384330D01*
X-1944300Y11400200D01*
X-1924610Y11421360D01*
G01X-1790760Y11373750D02*
Y11691250D01*
G01X-1625400D02*
Y11373750D01*
G01Y11532500D02*
X-1790760D01*
G01X-1491550Y11373750D02*
X-1393120Y11691250D01*
X-1294690Y11373750D01*
G01X-1330130Y11484870D02*
X-1456120D01*
G01X-1156900Y11373750D02*
Y11691250D01*
X-1058480D01*
X-1026980Y11675370D01*
X-1007290Y11654210D01*
X-999420Y11611870D01*
X-1007290Y11569540D01*
X-1030920Y11543090D01*
X-1058480Y11527200D01*
X-1156900D01*
G01X-1058480D02*
X-999420Y11373750D01*
G01X-763200Y11691250D02*
Y11373750D01*
G01X-853750Y11691250D02*
X-672650D01*
G01X-448240Y11363170D02*
X-456120Y11368460D01*
Y11379040D01*
X-448240Y11384330D01*
X-440360Y11379040D01*
Y11368460D01*
X-448240Y11363170D01*
G01Y11506030D02*
X-456120Y11511330D01*
Y11521910D01*
X-448240Y11527200D01*
X-440360Y11521910D01*
Y11511330D01*
X-448240Y11506030D01*
G01X181680Y11691250D02*
Y11373750D01*
G01X91130Y11691250D02*
X272230D01*
G01X496640Y11373750D02*
X465140Y11379040D01*
X437590Y11400200D01*
X413960Y11431960D01*
X398210Y11469000D01*
X390340Y11511330D01*
Y11553670D01*
X398210Y11596000D01*
X413960Y11633040D01*
X437590Y11664790D01*
X465140Y11685960D01*
X496640Y11691250D01*
X528130Y11685960D01*
X555690Y11664790D01*
X579320Y11633040D01*
X595070Y11596000D01*
X602940Y11553670D01*
Y11511330D01*
X595070Y11469000D01*
X579320Y11431960D01*
X555690Y11400200D01*
X528130Y11379040D01*
X496640Y11373750D01*
G01X732860D02*
Y11691250D01*
X827350D01*
X858840Y11675370D01*
X882470Y11638330D01*
X890340Y11596000D01*
X882470Y11553670D01*
X862780Y11521910D01*
X827350Y11506030D01*
X732860D01*
G01X1441520Y11691250D02*
Y11373750D01*
G01X1386400Y11585410D02*
X1496640D01*
G01X1756480Y11373750D02*
X1732860Y11379040D01*
X1709240Y11400200D01*
X1693480Y11437250D01*
X1685610Y11479580D01*
X1693480Y11521910D01*
X1709240Y11558960D01*
X1732860Y11580120D01*
X1756480Y11585410D01*
X1780100Y11580120D01*
X1803720Y11558960D01*
X1819470Y11521910D01*
X1823410Y11479580D01*
X1819470Y11437250D01*
X1803720Y11400200D01*
X1780100Y11379040D01*
X1756480Y11373750D01*
G01X2417890Y11543090D02*
X2433640Y11558960D01*
X2445450Y11585410D01*
X2453330Y11622460D01*
X2445450Y11654210D01*
X2429710Y11675370D01*
X2402150Y11691250D01*
X2295850D01*
Y11373750D01*
X2425770D01*
X2453330Y11394910D01*
X2469080Y11426670D01*
X2476950Y11463710D01*
X2469080Y11500740D01*
X2445450Y11532500D01*
X2417890Y11543090D01*
X2295850D01*
G01X2701360Y11373750D02*
X2669860Y11379040D01*
X2642310Y11400200D01*
X2618680Y11431960D01*
X2602930Y11469000D01*
X2595060Y11511330D01*
Y11553670D01*
X2602930Y11596000D01*
X2618680Y11633040D01*
X2642310Y11664790D01*
X2669860Y11685960D01*
X2701360Y11691250D01*
X2732850Y11685960D01*
X2760410Y11664790D01*
X2784040Y11633040D01*
X2799790Y11596000D01*
X2807660Y11553670D01*
Y11511330D01*
X2799790Y11469000D01*
X2784040Y11431960D01*
X2760410Y11400200D01*
X2732850Y11379040D01*
X2701360Y11373750D01*
G01X3016320Y11691250D02*
Y11373750D01*
G01X2925770Y11691250D02*
X3106870D01*
G01X3331280D02*
Y11373750D01*
G01X3240730Y11691250D02*
X3421830D01*
G01X3646240Y11373750D02*
X3614740Y11379040D01*
X3587190Y11400200D01*
X3563560Y11431960D01*
X3547810Y11469000D01*
X3539940Y11511330D01*
Y11553670D01*
X3547810Y11596000D01*
X3563560Y11633040D01*
X3587190Y11664790D01*
X3614740Y11685960D01*
X3646240Y11691250D01*
X3677730Y11685960D01*
X3705290Y11664790D01*
X3728920Y11633040D01*
X3744670Y11596000D01*
X3752540Y11553670D01*
Y11511330D01*
X3744670Y11469000D01*
X3728920Y11431960D01*
X3705290Y11400200D01*
X3677730Y11379040D01*
X3646240Y11373750D01*
G01X3858830D02*
Y11691250D01*
X3961200Y11426670D01*
X4063570Y11691250D01*
Y11373750D01*
G01X-3397060Y10088750D02*
Y10406250D01*
X-3247440D01*
G01X-3302570Y10252800D02*
X-3397060D01*
G01X-3054530Y10406250D02*
X-2960050D01*
G01X-3007290D02*
Y10088750D01*
G01X-3054530D02*
X-2960050D01*
G01X-2782880D02*
Y10406250D01*
X-2601780Y10088750D01*
Y10406250D01*
G01X-2424610D02*
X-2330130D01*
G01X-2377370D02*
Y10088750D01*
G01X-2424610D02*
X-2330130D01*
G01X-2145090Y10131070D02*
X-2113590Y10104620D01*
X-2078160Y10088750D01*
X-2046660D01*
X-2015170Y10104620D01*
X-1991540Y10131070D01*
X-1979730Y10168130D01*
X-1987600Y10205160D01*
X-2007290Y10236910D01*
X-2042730Y10258090D01*
X-2089970Y10268670D01*
X-2117530Y10289830D01*
X-2129340Y10326870D01*
X-2121460Y10363920D01*
X-2101780Y10390370D01*
X-2074220Y10406250D01*
X-2046660D01*
X-2019100Y10395670D01*
X-1995480Y10369210D01*
G01X-1830130Y10088750D02*
Y10406250D01*
G01X-1664770D02*
Y10088750D01*
G01Y10247500D02*
X-1830130D01*
G01X-1353750Y10088750D02*
X-1511230D01*
Y10406250D01*
X-1353750D01*
G01X-1416740Y10252800D02*
X-1511230D01*
G01X-1204140Y10088750D02*
Y10406250D01*
X-1125410D01*
X-1093910Y10390370D01*
X-1070290Y10369210D01*
X-1050600Y10337460D01*
X-1034850Y10300410D01*
X-1030920Y10247500D01*
X-1034850Y10194580D01*
X-1050600Y10157540D01*
X-1070290Y10125780D01*
X-1093910Y10104620D01*
X-1125410Y10088750D01*
X-1204140D01*
G01X-920680Y9982920D02*
X-684460D01*
G01X-570290Y10131070D02*
X-538790Y10104620D01*
X-503360Y10088750D01*
X-471860D01*
X-440370Y10104620D01*
X-416740Y10131070D01*
X-404930Y10168130D01*
X-412800Y10205160D01*
X-432490Y10236910D01*
X-467930Y10258090D01*
X-515170Y10268670D01*
X-542730Y10289830D01*
X-554540Y10326870D01*
X-546660Y10363920D01*
X-526980Y10390370D01*
X-499420Y10406250D01*
X-471860D01*
X-444300Y10395670D01*
X-420680Y10369210D01*
G01X-219890Y10406250D02*
X-125410D01*
G01X-172650D02*
Y10088750D01*
G01X-219890D02*
X-125410D01*
G01X67500Y10406250D02*
X217120D01*
X67500Y10088750D01*
X217120D01*
G01X536010D02*
X378530D01*
Y10406250D01*
X536010D01*
G01X473020Y10252800D02*
X378530D01*
G01X-2219890Y8183750D02*
Y8501250D01*
X-2267130Y8437750D01*
G01Y8183750D02*
X-2172650D01*
G01X-1904930Y8173170D02*
X-1912810Y8178460D01*
Y8189040D01*
X-1904930Y8194330D01*
X-1897050Y8189040D01*
Y8178460D01*
X-1904930Y8173170D01*
G01X-1589970Y8183750D02*
X-1562410Y8189040D01*
X-1530920Y8204910D01*
X-1511230Y8231360D01*
X-1503360Y8268420D01*
X-1511230Y8305450D01*
X-1534850Y8337200D01*
X-1570290Y8353090D01*
X-1609650D01*
X-1633280Y8363670D01*
X-1652970Y8390120D01*
X-1660840Y8427160D01*
X-1649020Y8464210D01*
X-1621470Y8490670D01*
X-1589970Y8501250D01*
X-1558480Y8490670D01*
X-1530920Y8464210D01*
X-1519100Y8427160D01*
X-1526980Y8390120D01*
X-1546660Y8363670D01*
X-1570290Y8353090D01*
X-1609650D01*
X-1645090Y8337200D01*
X-1668710Y8305450D01*
X-1676580Y8268420D01*
X-1668710Y8231360D01*
X-1649020Y8204910D01*
X-1617530Y8189040D01*
X-1589970Y8183750D01*
G01X-1361620Y8231360D02*
X-1338010Y8204910D01*
X-1310450Y8189040D01*
X-1275010Y8183750D01*
X-1239570Y8194330D01*
X-1212020Y8215490D01*
X-1192330Y8252540D01*
X-1188400Y8294870D01*
X-1196270Y8337200D01*
X-1215960Y8363670D01*
X-1243520Y8384830D01*
X-1271070Y8390120D01*
X-1298630Y8384830D01*
X-1334060Y8363670D01*
X-1322250Y8501250D01*
X-1215960D01*
G01X-912810Y8183750D02*
Y8501250D01*
X-1058480Y8273710D01*
X-861620D01*
G01X-719900Y8448330D02*
X-696270Y8480080D01*
X-668710Y8495960D01*
X-637210Y8501250D01*
X-597850Y8490670D01*
X-570280Y8464210D01*
X-562410Y8432460D01*
X-566350Y8400700D01*
X-582100Y8374250D01*
X-660840Y8321330D01*
X-696270Y8284290D01*
X-719900Y8231360D01*
X-727770Y8183750D01*
X-562410D01*
G01X-2219890Y9771250D02*
X-2251390Y9760670D01*
X-2275010Y9734210D01*
X-2290760Y9702460D01*
X-2302570Y9660120D01*
X-2306500Y9612500D01*
X-2302570Y9564870D01*
X-2290760Y9522540D01*
X-2275010Y9490780D01*
X-2251390Y9464330D01*
X-2219890Y9453750D01*
X-2188400Y9464330D01*
X-2164770Y9490780D01*
X-2149020Y9522540D01*
X-2137210Y9564870D01*
X-2133280Y9612500D01*
X-2137210Y9660120D01*
X-2149020Y9702460D01*
X-2164770Y9734210D01*
X-2188400Y9760670D01*
X-2219890Y9771250D01*
G01X-1904930Y9443170D02*
X-1912810Y9448460D01*
Y9459040D01*
X-1904930Y9464330D01*
X-1897050Y9459040D01*
Y9448460D01*
X-1904930Y9443170D01*
G01X-1664780Y9718330D02*
X-1641150Y9750080D01*
X-1613590Y9765960D01*
X-1582090Y9771250D01*
X-1542730Y9760670D01*
X-1515160Y9734210D01*
X-1507290Y9702460D01*
X-1511230Y9670700D01*
X-1526980Y9644250D01*
X-1605720Y9591330D01*
X-1641150Y9554290D01*
X-1664780Y9501360D01*
X-1672650Y9453750D01*
X-1507290D01*
G01X-1275010Y9771250D02*
X-1306510Y9760670D01*
X-1330130Y9734210D01*
X-1345880Y9702460D01*
X-1357690Y9660120D01*
X-1361620Y9612500D01*
X-1357690Y9564870D01*
X-1345880Y9522540D01*
X-1330130Y9490780D01*
X-1306510Y9464330D01*
X-1275010Y9453750D01*
X-1243520Y9464330D01*
X-1219890Y9490780D01*
X-1204140Y9522540D01*
X-1192330Y9564870D01*
X-1188400Y9612500D01*
X-1192330Y9660120D01*
X-1204140Y9702460D01*
X-1219890Y9734210D01*
X-1243520Y9760670D01*
X-1275010Y9771250D01*
G01X-1046660Y9517250D02*
X-1023050Y9480200D01*
X-991550Y9459040D01*
X-956110Y9453750D01*
X-924610Y9459040D01*
X-893120Y9485490D01*
X-873440Y9517250D01*
X-869500Y9549000D01*
X-877370Y9586030D01*
X-904930Y9612500D01*
X-932490Y9623090D01*
X-967930D01*
G01X-932490D02*
X-908870Y9638960D01*
X-889180Y9665410D01*
X-881310Y9697160D01*
X-889180Y9728920D01*
X-908870Y9755370D01*
X-944300Y9771250D01*
X-979730Y9765960D01*
X-1015170Y9744790D01*
G01X-719900Y9718330D02*
X-696270Y9750080D01*
X-668710Y9765960D01*
X-637210Y9771250D01*
X-597850Y9760670D01*
X-570280Y9734210D01*
X-562410Y9702460D01*
X-566350Y9670700D01*
X-582100Y9644250D01*
X-660840Y9591330D01*
X-696270Y9554290D01*
X-719900Y9501360D01*
X-727770Y9453750D01*
X-562410D01*
G01X-1747450Y9136250D02*
X-1778950Y9125670D01*
X-1802570Y9099210D01*
X-1818320Y9067460D01*
X-1830130Y9025120D01*
X-1834060Y8977500D01*
X-1830130Y8929870D01*
X-1818320Y8887540D01*
X-1802570Y8855780D01*
X-1778950Y8829330D01*
X-1747450Y8818750D01*
X-1715960Y8829330D01*
X-1692330Y8855780D01*
X-1676580Y8887540D01*
X-1664770Y8929870D01*
X-1660840Y8977500D01*
X-1664770Y9025120D01*
X-1676580Y9067460D01*
X-1692330Y9099210D01*
X-1715960Y9125670D01*
X-1747450Y9136250D01*
G01X-1432490Y8808170D02*
X-1440370Y8813460D01*
Y8824040D01*
X-1432490Y8829330D01*
X-1424610Y8824040D01*
Y8813460D01*
X-1432490Y8808170D01*
G01X-1117530Y8818750D02*
X-1089970Y8824040D01*
X-1058480Y8839910D01*
X-1038790Y8866360D01*
X-1030920Y8903420D01*
X-1038790Y8940450D01*
X-1062410Y8972200D01*
X-1097850Y8988090D01*
X-1137210D01*
X-1160840Y8998670D01*
X-1180530Y9025120D01*
X-1188400Y9062160D01*
X-1176580Y9099210D01*
X-1149030Y9125670D01*
X-1117530Y9136250D01*
X-1086040Y9125670D01*
X-1058480Y9099210D01*
X-1046660Y9062160D01*
X-1054540Y9025120D01*
X-1074220Y8998670D01*
X-1097850Y8988090D01*
X-1137210D01*
X-1172650Y8972200D01*
X-1196270Y8940450D01*
X-1204140Y8903420D01*
X-1196270Y8866360D01*
X-1176580Y8839910D01*
X-1145090Y8824040D01*
X-1117530Y8818750D01*
G01X1874590Y8183750D02*
Y8501250D01*
X1969080D01*
X2000570Y8485370D01*
X2024200Y8448330D01*
X2032070Y8406000D01*
X2024200Y8363670D01*
X2004510Y8331910D01*
X1969080Y8316030D01*
X1874590D01*
G01X2189550Y8501250D02*
Y8183750D01*
X2347030D01*
G01X2484820D02*
X2583250Y8501250D01*
X2681680Y8183750D01*
G01X2646240Y8294870D02*
X2520250D01*
G01X2898210Y8501250D02*
Y8183750D01*
G01X2807660Y8501250D02*
X2988760D01*
G01X3291910Y8183750D02*
X3134430D01*
Y8501250D01*
X3291910D01*
G01X3228920Y8347800D02*
X3134430D01*
G01X3441520Y8183750D02*
Y8501250D01*
X3520250D01*
X3551750Y8485370D01*
X3575370Y8464210D01*
X3595060Y8432460D01*
X3610810Y8395410D01*
X3614740Y8342500D01*
X3610810Y8289580D01*
X3595060Y8252540D01*
X3575370Y8220780D01*
X3551750Y8199620D01*
X3520250Y8183750D01*
X3441520D01*
G01X1874590Y8818750D02*
Y9136250D01*
X1969080D01*
X2000570Y9120370D01*
X2024200Y9083330D01*
X2032070Y9041000D01*
X2024200Y8998670D01*
X2004510Y8966910D01*
X1969080Y8951030D01*
X1874590D01*
G01X2189550Y9136250D02*
Y8818750D01*
X2347030D01*
G01X2484820D02*
X2583250Y9136250D01*
X2681680Y8818750D01*
G01X2646240Y8929870D02*
X2520250D01*
G01X2898210Y9136250D02*
Y8818750D01*
G01X2807660Y9136250D02*
X2988760D01*
G01X3291910Y8818750D02*
X3134430D01*
Y9136250D01*
X3291910D01*
G01X3228920Y8982800D02*
X3134430D01*
G01X3441520Y8818750D02*
Y9136250D01*
X3520250D01*
X3551750Y9120370D01*
X3575370Y9099210D01*
X3595060Y9067460D01*
X3610810Y9030410D01*
X3614740Y8977500D01*
X3610810Y8924580D01*
X3595060Y8887540D01*
X3575370Y8855780D01*
X3551750Y8834620D01*
X3520250Y8818750D01*
X3441520D01*
G01X1874590Y9453750D02*
Y9771250D01*
X1969080D01*
X2000570Y9755370D01*
X2024200Y9718330D01*
X2032070Y9676000D01*
X2024200Y9633670D01*
X2004510Y9601910D01*
X1969080Y9586030D01*
X1874590D01*
G01X2189550Y9771250D02*
Y9453750D01*
X2347030D01*
G01X2484820D02*
X2583250Y9771250D01*
X2681680Y9453750D01*
G01X2646240Y9564870D02*
X2520250D01*
G01X2898210Y9771250D02*
Y9453750D01*
G01X2807660Y9771250D02*
X2988760D01*
G01X3291910Y9453750D02*
X3134430D01*
Y9771250D01*
X3291910D01*
G01X3228920Y9617800D02*
X3134430D01*
G01X3441520Y9453750D02*
Y9771250D01*
X3520250D01*
X3551750Y9755370D01*
X3575370Y9734210D01*
X3595060Y9702460D01*
X3610810Y9665410D01*
X3614740Y9612500D01*
X3610810Y9559580D01*
X3595060Y9522540D01*
X3575370Y9490780D01*
X3551750Y9469620D01*
X3520250Y9453750D01*
X3441520D01*
G01X1874590Y10088750D02*
Y10406250D01*
X1969080D01*
X2000570Y10390370D01*
X2024200Y10353330D01*
X2032070Y10311000D01*
X2024200Y10268670D01*
X2004510Y10236910D01*
X1969080Y10221030D01*
X1874590D01*
G01X2189550Y10406250D02*
Y10088750D01*
X2347030D01*
G01X2484820D02*
X2583250Y10406250D01*
X2681680Y10088750D01*
G01X2646240Y10199870D02*
X2520250D01*
G01X2898210Y10406250D02*
Y10088750D01*
G01X2807660Y10406250D02*
X2988760D01*
G01X3291910Y10088750D02*
X3134430D01*
Y10406250D01*
X3291910D01*
G01X3228920Y10252800D02*
X3134430D01*
G01X3441520Y10088750D02*
Y10406250D01*
X3520250D01*
X3551750Y10390370D01*
X3575370Y10369210D01*
X3595060Y10337460D01*
X3610810Y10300410D01*
X3614740Y10247500D01*
X3610810Y10194580D01*
X3595060Y10157540D01*
X3575370Y10125780D01*
X3551750Y10104620D01*
X3520250Y10088750D01*
X3441520D01*
G01X5181670Y8818750D02*
Y9136250D01*
X5134430Y9072750D01*
G01Y8818750D02*
X5228910D01*
G01X5421820Y9083330D02*
X5445450Y9115080D01*
X5473010Y9130960D01*
X5504510Y9136250D01*
X5543870Y9125670D01*
X5571440Y9099210D01*
X5579310Y9067460D01*
X5575370Y9035700D01*
X5559620Y9009250D01*
X5480880Y8956330D01*
X5445450Y8919290D01*
X5421820Y8866360D01*
X5413950Y8818750D01*
X5579310D01*
G01X5024190Y10088750D02*
X4992690Y10094040D01*
X4965140Y10115200D01*
X4941510Y10146960D01*
X4925760Y10184000D01*
X4917890Y10226330D01*
Y10268670D01*
X4925760Y10311000D01*
X4941510Y10348040D01*
X4965140Y10379790D01*
X4992690Y10400960D01*
X5024190Y10406250D01*
X5055680Y10400960D01*
X5083240Y10379790D01*
X5106870Y10348040D01*
X5122620Y10311000D01*
X5130490Y10268670D01*
Y10226330D01*
X5122620Y10184000D01*
X5106870Y10146960D01*
X5083240Y10115200D01*
X5055680Y10094040D01*
X5024190Y10088750D01*
G01X5055680Y10173420D02*
X5102930Y10088750D01*
G01X5339150Y10406250D02*
Y10088750D01*
G01X5248600Y10406250D02*
X5429700D01*
G01X5654110Y10088750D02*
Y10231620D01*
X5575370Y10406250D01*
G01X5732850D02*
X5654110Y10231620D01*
G01X5339150Y8183750D02*
X5366710Y8189040D01*
X5398200Y8204910D01*
X5417890Y8231360D01*
X5425760Y8268420D01*
X5417890Y8305450D01*
X5394270Y8337200D01*
X5358830Y8353090D01*
X5319470D01*
X5295840Y8363670D01*
X5276150Y8390120D01*
X5268280Y8427160D01*
X5280100Y8464210D01*
X5307650Y8490670D01*
X5339150Y8501250D01*
X5370640Y8490670D01*
X5398200Y8464210D01*
X5410020Y8427160D01*
X5402140Y8390120D01*
X5382460Y8363670D01*
X5358830Y8353090D01*
X5319470D01*
X5284030Y8337200D01*
X5260410Y8305450D01*
X5252540Y8268420D01*
X5260410Y8231360D01*
X5280100Y8204910D01*
X5311590Y8189040D01*
X5339150Y8183750D01*
G01X5252540Y9501360D02*
X5276150Y9474910D01*
X5303710Y9459040D01*
X5339150Y9453750D01*
X5374590Y9464330D01*
X5402140Y9485490D01*
X5421830Y9522540D01*
X5425760Y9564870D01*
X5417890Y9607200D01*
X5398200Y9633670D01*
X5370640Y9654830D01*
X5343090Y9660120D01*
X5315530Y9654830D01*
X5280100Y9633670D01*
X5291910Y9771250D01*
X5398200D01*
G01X-6275000Y8025000D02*
Y11850000D01*
X6323400D01*
Y8025000D01*
X-6275000D01*
G01Y8660000D02*
X6323400D01*
G01X-6275000Y9295000D02*
X6323400D01*
G01X-6275000Y9930000D02*
X6323400D01*
G01X-6275000Y10565000D02*
X6323400D01*
G01X-6275000Y11200000D02*
X6323400D01*
G01X-3991540Y10565000D02*
Y8025000D01*
G01X1126560Y10565000D02*
Y8025000D01*
G01X4354900Y10565000D02*
Y8025000D01*
M02*
