G04 ================== begin FILE IDENTIFICATION RECORD ==================*
G04 Layout Name:  C:/Users/repex/Desktop/SoilSensor/PCB/allegro/SoilSensor.brd*
G04 Film Name:    SILK_TOP*
G04 File Format:  Gerber RS274X*
G04 File Origin:  Cadence Allegro 17.2-S081*
G04 Origin Date:  Thu Apr 07 00:31:38 2022*
G04 *
G04 Layer:  REF DES/SILKSCREEN_TOP*
G04 Layer:  COMPONENT VALUE/SILKSCREEN_TOP*
G04 Layer:  PACKAGE GEOMETRY/SILKSCREEN_TOP*
G04 *
G04 Offset:    (0.0000 0.0000)*
G04 Mirror:    No*
G04 Mode:      Positive*
G04 Rotation:  0*
G04 FullContactRelief:  No*
G04 UndefLineWidth:     0.0000*
G04 ================== end FILE IDENTIFICATION RECORD ====================*
%FSLAX25Y25*MOMM*%
%IR0*IPPOS*OFA0.00000B0.00000*MIA0B0*SFA1.00000B1.00000*%
%ADD10C,.2*%
%ADD11C,.15*%
%ADD12C,.1524*%
G75*
%LPD*%
G75*
G36*
G01X-1210000Y-5095000D02*
Y-5255000D01*
X-890000D01*
Y-5095000D01*
X-1210000D01*
G37*
G36*
G01X-1255000Y-4435000D02*
X-1095000D01*
Y-4115000D01*
X-1255000D01*
Y-4435000D01*
G37*
G36*
G01X-295000Y-4865000D02*
X-455000D01*
Y-5185000D01*
X-295000D01*
Y-4865000D01*
G37*
G36*
G01X460000Y-5180000D02*
Y-5020000D01*
X140000D01*
Y-5180000D01*
X460000D01*
G37*
G36*
G01X160000Y-4105000D02*
Y-3945000D01*
X-160000D01*
Y-4105000D01*
X160000D01*
G37*
G36*
G01X-160000Y-3645000D02*
Y-3805000D01*
X160000D01*
Y-3645000D01*
X-160000D01*
G37*
G36*
G01X315000Y-4670000D02*
Y-4830000D01*
X635000D01*
Y-4670000D01*
X315000D01*
G37*
G36*
G01Y-4420000D02*
Y-4580000D01*
X635000D01*
Y-4420000D01*
X315000D01*
G37*
G54D10*
G01X-170000Y-4845000D02*
X-220000D01*
G01D02*
Y-4765000D01*
G01Y-4425000D02*
Y-4405000D01*
G01X-202500D02*
X-220000D01*
G01X220000Y-4845000D02*
Y-4825000D01*
G01Y-4845000D02*
X202500D01*
G01X220000Y-4405000D02*
X202500D01*
G01X220000Y-4425000D02*
Y-4405000D01*
G54D11*
G01X-1446940Y-5250000D02*
Y-5123000D01*
X-1406730D01*
X-1393860Y-5129350D01*
X-1385810Y-5137820D01*
X-1382600Y-5154750D01*
X-1385810Y-5171680D01*
X-1395470Y-5182270D01*
X-1406730Y-5188620D01*
X-1446940D01*
G01X-1406730D02*
X-1382600Y-5250000D01*
G01X-1315800Y-5144170D02*
X-1306140Y-5131470D01*
X-1294880Y-5125120D01*
X-1282010Y-5123000D01*
X-1265930Y-5127230D01*
X-1254660Y-5137820D01*
X-1251450Y-5150510D01*
X-1253060Y-5163220D01*
X-1259490Y-5173800D01*
X-1291660Y-5194970D01*
X-1306140Y-5209780D01*
X-1315800Y-5230950D01*
X-1319010Y-5250000D01*
X-1251450D01*
G01X-1277000Y-4750160D02*
X-1185980D01*
X-1166930Y-4743730D01*
X-1154230Y-4730860D01*
X-1150000Y-4714770D01*
X-1154230Y-4698680D01*
X-1166930Y-4685810D01*
X-1185980Y-4679380D01*
X-1277000D01*
G01X-1255830Y-4615800D02*
X-1268530Y-4606140D01*
X-1274880Y-4594880D01*
X-1277000Y-4582010D01*
X-1272770Y-4565930D01*
X-1262180Y-4554660D01*
X-1249490Y-4551450D01*
X-1236780Y-4553060D01*
X-1226200Y-4559490D01*
X-1205030Y-4591660D01*
X-1190220Y-4606140D01*
X-1169050Y-4615800D01*
X-1150000Y-4619010D01*
Y-4551450D01*
G01X-1241420Y-3979380D02*
X-1247770Y-3989030D01*
X-1252000Y-4000290D01*
Y-4013160D01*
X-1245650Y-4027640D01*
X-1235070Y-4038900D01*
X-1222370Y-4046940D01*
X-1201200Y-4053380D01*
X-1182150Y-4054990D01*
X-1163100Y-4051770D01*
X-1150400Y-4046940D01*
X-1137700Y-4037290D01*
X-1129230Y-4026030D01*
X-1125000Y-4014770D01*
Y-4003510D01*
X-1129230Y-3992250D01*
X-1135580Y-3982600D01*
X-1144050Y-3974550D01*
G01Y-3920620D02*
X-1133460Y-3910970D01*
X-1127120Y-3899710D01*
X-1125000Y-3885230D01*
X-1129230Y-3870750D01*
X-1137700Y-3859490D01*
X-1152510Y-3851450D01*
X-1169450Y-3849840D01*
X-1186380Y-3853060D01*
X-1196970Y-3861100D01*
X-1205430Y-3872360D01*
X-1207550Y-3883620D01*
X-1205430Y-3894880D01*
X-1196970Y-3909360D01*
X-1252000Y-3904530D01*
Y-3861100D01*
G01X-425000Y-4628060D02*
X-298000D01*
Y-4668270D01*
X-304350Y-4681140D01*
X-312820Y-4689190D01*
X-329750Y-4692400D01*
X-346680Y-4689190D01*
X-357270Y-4679530D01*
X-363620Y-4668270D01*
Y-4628060D01*
G01Y-4668270D02*
X-425000Y-4692400D01*
G01Y-4789770D02*
X-298000D01*
X-323400Y-4770470D01*
G01X-425000D02*
Y-4809070D01*
G01X-353740Y-4542210D02*
X-297310D01*
X-285500Y-4538320D01*
X-277620Y-4530530D01*
X-275000Y-4520790D01*
X-277620Y-4511050D01*
X-285500Y-4503260D01*
X-297310Y-4499370D01*
X-353740D01*
G01X-275000Y-4442050D02*
X-353740D01*
X-337990Y-4453730D01*
G01X-275000D02*
Y-4430370D01*
G01X-354380Y-3958580D02*
X-364030Y-3952230D01*
X-375290Y-3948000D01*
X-388160D01*
X-402640Y-3954350D01*
X-413900Y-3964930D01*
X-421940Y-3977630D01*
X-428380Y-3998800D01*
X-429990Y-4017850D01*
X-426770Y-4036900D01*
X-421940Y-4049600D01*
X-412290Y-4062300D01*
X-401030Y-4070770D01*
X-389770Y-4075000D01*
X-378510D01*
X-367250Y-4070770D01*
X-357600Y-4064420D01*
X-349550Y-4055950D01*
G01X-290800Y-3969170D02*
X-281140Y-3956470D01*
X-269880Y-3950120D01*
X-257010Y-3948000D01*
X-240930Y-3952230D01*
X-229660Y-3962820D01*
X-226450Y-3975510D01*
X-228060Y-3988220D01*
X-234490Y-3998800D01*
X-266660Y-4019970D01*
X-281140Y-4034780D01*
X-290800Y-4055950D01*
X-294010Y-4075000D01*
X-226450D01*
G01X-396940Y-3648000D02*
Y-3775000D01*
X-332600D01*
G01X-235230D02*
Y-3648000D01*
X-254530Y-3673400D01*
G01Y-3775000D02*
X-215930D01*
G01X-18350Y6122180D02*
X-24190Y6126120D01*
X-31010Y6128740D01*
X-38800D01*
X-47560Y6124800D01*
X-54370Y6118240D01*
X-59240Y6110370D01*
X-63140Y6097240D01*
X-64110Y6085430D01*
X-62160Y6073620D01*
X-59240Y6065750D01*
X-53400Y6057870D01*
X-46590Y6052620D01*
X-39770Y6050000D01*
X-32950D01*
X-26140Y6052620D01*
X-20300Y6056560D01*
X-15430Y6061810D01*
G01X38970Y6050000D02*
Y6128740D01*
X27290Y6112990D01*
G01Y6050000D02*
X50650D01*
G01X570620Y-4933580D02*
X560970Y-4927230D01*
X549710Y-4923000D01*
X536840D01*
X522360Y-4929350D01*
X511100Y-4939930D01*
X503060Y-4952630D01*
X496620Y-4973800D01*
X495010Y-4992850D01*
X498230Y-5011900D01*
X503060Y-5024600D01*
X512710Y-5037300D01*
X523970Y-5045770D01*
X535230Y-5050000D01*
X546490D01*
X557750Y-5045770D01*
X567400Y-5039420D01*
X575450Y-5030950D01*
G01X634200Y-4997090D02*
X645470Y-4982270D01*
X655120Y-4973800D01*
X667990Y-4969570D01*
X679250Y-4973800D01*
X687290Y-4982270D01*
X693730Y-4994970D01*
X695340Y-5009780D01*
X693730Y-5022490D01*
X687290Y-5035190D01*
X677640Y-5045770D01*
X666380Y-5050000D01*
X653510Y-5045770D01*
X642250Y-5033070D01*
X635810Y-5014020D01*
X634200Y-4992850D01*
X637420Y-4965340D01*
X642250Y-4950510D01*
X650290Y-4935700D01*
X661550Y-4925120D01*
X672810Y-4923000D01*
X684070Y-4927230D01*
X692120Y-4937820D01*
G01X770620Y-4708580D02*
X760970Y-4702230D01*
X749710Y-4698000D01*
X736840D01*
X722360Y-4704350D01*
X711100Y-4714930D01*
X703060Y-4727630D01*
X696620Y-4748800D01*
X695010Y-4767850D01*
X698230Y-4786900D01*
X703060Y-4799600D01*
X712710Y-4812300D01*
X723970Y-4820770D01*
X735230Y-4825000D01*
X746490D01*
X757750Y-4820770D01*
X767400Y-4814420D01*
X775450Y-4805950D01*
G01X829380Y-4799600D02*
X839030Y-4814420D01*
X851900Y-4822880D01*
X866380Y-4825000D01*
X879250Y-4822880D01*
X892120Y-4812300D01*
X900160Y-4799600D01*
X901770Y-4786900D01*
X898550Y-4772090D01*
X887290Y-4761500D01*
X876030Y-4757270D01*
X861550D01*
G01X876030D02*
X885680Y-4750920D01*
X893730Y-4740340D01*
X896940Y-4727630D01*
X893730Y-4714930D01*
X885680Y-4704350D01*
X871200Y-4698000D01*
X856730Y-4700120D01*
X842250Y-4708580D01*
G01X770620Y-4458580D02*
X760970Y-4452230D01*
X749710Y-4448000D01*
X736840D01*
X722360Y-4454350D01*
X711100Y-4464930D01*
X703060Y-4477630D01*
X696620Y-4498800D01*
X695010Y-4517850D01*
X698230Y-4536900D01*
X703060Y-4549600D01*
X712710Y-4562300D01*
X723970Y-4570770D01*
X735230Y-4575000D01*
X746490D01*
X757750Y-4570770D01*
X767400Y-4564420D01*
X775450Y-4555950D01*
G01X884070Y-4575000D02*
Y-4448000D01*
X824550Y-4539020D01*
X904990D01*
G01X955150Y-5529140D02*
X947270Y-5534010D01*
X942020Y-5539850D01*
X939400Y-5546660D01*
X942020Y-5554450D01*
X947270Y-5560290D01*
X955150Y-5566140D01*
X965650Y-5568080D01*
X1018140D01*
G01X939400Y-5627350D02*
X1018140D01*
X1002390Y-5615670D01*
G01X939400D02*
Y-5639030D01*
G54D12*
G01X-1025190Y-4630480D02*
G03Y-4569520I0J30480D01*
G01Y-4462630D02*
Y-4737370D01*
G01X-524810D02*
Y-4462630D01*
M02*
