G04 ================== begin FILE IDENTIFICATION RECORD ==================*
G04 Layout Name:  C:/Users/repex/Desktop/SoilSensor/PCB/allegro/SoilSensor.brd*
G04 Film Name:    SILK_TOP*
G04 File Format:  Gerber RS274X*
G04 File Origin:  Cadence Allegro 17.2-S081*
G04 Origin Date:  Wed Apr 06 23:34:04 2022*
G04 *
G04 Layer:  REF DES/SILKSCREEN_TOP*
G04 Layer:  COMPONENT VALUE/SILKSCREEN_TOP*
G04 Layer:  PACKAGE GEOMETRY/SILKSCREEN_TOP*
G04 *
G04 Offset:    (0.0000 0.0000)*
G04 Mirror:    No*
G04 Mode:      Positive*
G04 Rotation:  0*
G04 FullContactRelief:  No*
G04 UndefLineWidth:     0.0000*
G04 ================== end FILE IDENTIFICATION RECORD ====================*
%FSLAX25Y25*MOMM*%
%IR0*IPPOS*OFA0.00000B0.00000*MIA0B0*SFA1.00000B1.00000*%
%ADD10C,.2*%
%ADD11C,.1524*%
G75*
%LPD*%
G75*
G36*
G01X-1210000Y-5095000D02*
Y-5255000D01*
X-890000D01*
Y-5095000D01*
X-1210000D01*
G37*
G36*
G01X-1255000Y-4435000D02*
X-1095000D01*
Y-4115000D01*
X-1255000D01*
Y-4435000D01*
G37*
G36*
G01X-295000Y-4865000D02*
X-455000D01*
Y-5185000D01*
X-295000D01*
Y-4865000D01*
G37*
G36*
G01X460000Y-5180000D02*
Y-5020000D01*
X140000D01*
Y-5180000D01*
X460000D01*
G37*
G36*
G01X160000Y-4105000D02*
Y-3945000D01*
X-160000D01*
Y-4105000D01*
X160000D01*
G37*
G36*
G01X-160000Y-3645000D02*
Y-3805000D01*
X160000D01*
Y-3645000D01*
X-160000D01*
G37*
G36*
G01X315000Y-4670000D02*
Y-4830000D01*
X635000D01*
Y-4670000D01*
X315000D01*
G37*
G36*
G01Y-4420000D02*
Y-4580000D01*
X635000D01*
Y-4420000D01*
X315000D01*
G37*
G54D10*
G01X-170000Y-4845000D02*
X-220000D01*
G01D02*
Y-4765000D01*
G01Y-4425000D02*
Y-4405000D01*
G01X-202500D02*
X-220000D01*
G01X220000Y-4845000D02*
Y-4825000D01*
G01Y-4845000D02*
X202500D01*
G01X220000Y-4405000D02*
X202500D01*
G01X220000Y-4425000D02*
Y-4405000D01*
G54D11*
G01X-1025190Y-4630480D02*
G03Y-4569520I0J30480D01*
G01Y-4462630D02*
Y-4737370D01*
G01X-524810D02*
Y-4462630D01*
M02*
