G04 ================== begin FILE IDENTIFICATION RECORD ==================*
G04 Layout Name:  SoilSensor.brd*
G04 Film Name:    TOP*
G04 File Format:  Gerber RS274X*
G04 File Origin:  Cadence Allegro 17.2-S081*
G04 Origin Date:  Thu May 19 17:36:56 2022*
G04 *
G04 Layer:  VIA CLASS/TOP*
G04 Layer:  PIN/TOP*
G04 Layer:  ETCH/TOP*
G04 Layer:  BOARD GEOMETRY/DESIGN_OUTLINE*
G04 Layer:  BOARD GEOMETRY/CUTOUT*
G04 *
G04 Offset:    (0.0000 0.0000)*
G04 Mirror:    No*
G04 Mode:      Positive*
G04 Rotation:  0*
G04 FullContactRelief:  No*
G04 UndefLineWidth:     0.1500*
G04 ================== end FILE IDENTIFICATION RECORD ====================*
%FSLAX25Y25*MOMM*%
%IR0*IPPOS*OFA0.00000B0.00000*MIA0B0*SFA1.00000B1.00000*%
%ADD17C,.5*%
%ADD13R,.5588X1.9812*%
%ADD18R,3.X2.6*%
%ADD15R,1.6X3.2*%
%ADD16R,.25X.6*%
%ADD12C,1.4*%
%ADD14C,2.286*%
%ADD11R,1.4478X1.1176*%
%ADD10R,1.1176X1.4478*%
%ADD19C,.25*%
%ADD20C,.15*%
G75*
%LPD*%
G75*
G36*
G01X-1300000Y-3600000D02*
Y6000000D01*
X1000000D01*
Y5800000D01*
X-1100000D01*
Y5400000D01*
X1000000D01*
Y5200000D01*
X-1100000D01*
Y4800000D01*
X1000000D01*
Y4600000D01*
X-1100000D01*
Y4200000D01*
X1000000D01*
Y4000000D01*
X-1100000D01*
Y3600000D01*
X1000000D01*
Y3400000D01*
X-1100000D01*
Y3000000D01*
X1000000D01*
Y2800000D01*
X-1100000D01*
Y2400000D01*
X1000000D01*
Y2200000D01*
X-1100000D01*
Y1800000D01*
X1000000D01*
Y1600000D01*
X-1100000D01*
Y1200000D01*
X1000000D01*
Y1000000D01*
X-1100000D01*
Y600000D01*
X1000000D01*
Y400000D01*
X-1100000D01*
Y0D01*
X1000000D01*
Y-200000D01*
X-1100000D01*
Y-600000D01*
X1000000D01*
Y-800000D01*
X-1100000D01*
Y-1200000D01*
X1000000D01*
Y-1400000D01*
X-1100000D01*
Y-1800000D01*
X1000000D01*
Y-2000000D01*
X-1100000D01*
Y-2400000D01*
X1000000D01*
Y-2600000D01*
X-1100000D01*
Y-3000000D01*
X1000000D01*
Y-3200000D01*
X-1100000D01*
Y-3600000D01*
X-1300000D01*
G37*
G36*
G01X1100000D02*
Y-3500000D01*
X-1000000D01*
Y-3300000D01*
X1100000D01*
Y-2900000D01*
X-1000000D01*
Y-2700000D01*
X1100000D01*
Y-2300000D01*
X-1000000D01*
Y-2100000D01*
X1100000D01*
Y-1700000D01*
X-1000000D01*
Y-1500000D01*
X1100000D01*
Y-1100000D01*
X-1000000D01*
Y-900000D01*
X1100000D01*
Y-500000D01*
X-1000000D01*
Y-300000D01*
X1100000D01*
Y100000D01*
X-1000000D01*
Y300000D01*
X1100000D01*
Y700000D01*
X-1000000D01*
Y900000D01*
X1100000D01*
Y1300000D01*
X-1000000D01*
Y1500000D01*
X1100000D01*
Y1900000D01*
X-1000000D01*
Y2100000D01*
X1100000D01*
Y2500000D01*
X-1000000D01*
Y2700000D01*
X1100000D01*
Y3100000D01*
X-1000000D01*
Y3300000D01*
X1100000D01*
Y3700000D01*
X-1000000D01*
Y3900000D01*
X1100000D01*
Y4300000D01*
X-1000000D01*
Y4500000D01*
X1100000D01*
Y4900000D01*
X-1000000D01*
Y5100000D01*
X1100000D01*
Y5500000D01*
X-1000000D01*
Y5700000D01*
X1300000D01*
Y-3600000D01*
X1100000D01*
G37*
G54D10*
X-1140170Y-5175000D03*
X-959830D03*
X209830Y-5100000D03*
X-90170Y-4025000D03*
X90170D03*
Y-3725000D03*
X-90170D03*
X390170Y-5100000D03*
X384830Y-4750000D03*
Y-4500000D03*
X565170Y-4750000D03*
Y-4500000D03*
G54D20*
G01X1500000Y-6550000D02*
X-1500000D01*
Y6200000D01*
X0Y7700000D01*
X1500000Y6200000D01*
Y-6550000D01*
G54D11*
X-1175000Y-4184830D03*
Y-4365170D03*
X-375000Y-5115170D03*
Y-4934830D03*
G54D12*
X-1200000Y-3500000D03*
X-1075000Y-4075000D03*
X-584500Y-5025000D03*
Y-4200000D03*
X-250000Y-4325000D03*
X25000Y-4925000D03*
X175000D03*
X525000Y-5100000D03*
X250000Y-4325000D03*
X675000Y-4650000D03*
Y-4400000D03*
X1200000Y-3500000D03*
G54D13*
X-838500Y-4846380D03*
X-965500D03*
Y-4353620D03*
X-838500D03*
X-584500Y-4846380D03*
X-711500D03*
Y-4353620D03*
X-584500D03*
G54D14*
X-569360Y-6306800D03*
Y-5443200D03*
X-173120Y-6306800D03*
Y-5443200D03*
X223120Y-6306800D03*
Y-5443200D03*
X619360Y-6306800D03*
Y-5443200D03*
G54D15*
X-575000Y-3725000D03*
X625000D03*
G54D16*
X125000Y-4815000D03*
X75000D03*
X25000D03*
X-25000D03*
X-75000D03*
X-125000D03*
Y-4435000D03*
X-75000D03*
X-25000D03*
X25000D03*
X75000D03*
X125000D03*
G54D17*
X-120000Y-4625000D03*
X120000D03*
X0Y-4725000D03*
Y-4525000D03*
Y-4625000D03*
G54D18*
D03*
G54D19*
G01X-1175000Y-4184830D02*
X-1158490D01*
X-1075000Y-4101340D01*
Y-4075000D01*
G01X-1175000Y-4365170D02*
X-1125000D01*
G01X209830Y-5100000D02*
X125000D01*
X25000Y-5200000D01*
Y-5550000D01*
X-225000Y-5800000D01*
X-900000D01*
X-1125000Y-5575000D01*
Y-5175000D01*
G01X-173120Y-5443200D02*
X-379920Y-5650000D01*
X-800000D01*
X-965500Y-5484500D01*
Y-5175000D01*
G01X-1140170D02*
X-1125000D01*
G01D02*
Y-4750000D01*
G01X-569360Y-5443200D02*
X-838500Y-5174060D01*
Y-4846380D01*
G01X-965500Y-5175000D02*
Y-4846380D01*
G01X-959830Y-5175000D02*
X-965500D01*
G01X-1125000Y-4750000D02*
Y-4365170D01*
G01X-375000Y-4934830D02*
Y-4853750D01*
X-528750Y-4700000D01*
X-1075000D01*
X-1125000Y-4750000D01*
G01X-838500Y-4353620D02*
X-711500D01*
G01X-1125000Y-4365170D02*
X-1115170D01*
X-1103620Y-4353620D01*
X-965500D01*
G01X-569360Y-5443200D02*
Y-5211940D01*
X-472590Y-5115170D01*
X-375000D01*
G01X-584500Y-4846380D02*
Y-5025000D01*
G01Y-4353620D02*
X-711500D01*
G01X-584500D02*
Y-4200000D01*
G01X-575000Y-3725000D02*
X-90170D01*
G01X-173120Y-5443200D02*
X-74470Y-5344550D01*
Y-5300530D01*
X-75000Y-5300000D01*
Y-4815000D01*
G01X-375000Y-5115170D02*
X-165170D01*
X-125000Y-5075000D01*
Y-4815000D01*
G01X-250000Y-4325000D02*
X-210620Y-4364380D01*
Y-4387080D01*
X-162700Y-4435000D01*
X-125000D01*
G01X25000Y-4925000D02*
X0D01*
X-25000Y-4900000D01*
Y-4815000D01*
G01X175000Y-4925000D02*
X150000D01*
X125000Y-4900000D01*
Y-4815000D01*
G01X-25000D02*
X25000D01*
G01X250000Y-4325000D02*
X200000Y-4375000D01*
X106860D01*
X75000Y-4406860D01*
Y-4435000D01*
G01X-125000D02*
X-75000D01*
G01X384830Y-4500000D02*
Y-4475000D01*
X303750D01*
X263750Y-4435000D01*
X125000D01*
G01X90170Y-4025000D02*
Y-4320770D01*
X25000Y-4385940D01*
Y-4435000D01*
G01X-90170Y-4025000D02*
Y-4320770D01*
X-25000Y-4385940D01*
Y-4435000D01*
G01X90170Y-3725000D02*
Y-4025000D01*
G01X-90170Y-3725000D02*
Y-4025000D01*
G01X90170Y-3725000D02*
X625000D01*
G01X223120Y-5443200D02*
Y-5113290D01*
X209830Y-5100000D01*
G01X390170D02*
X525000D01*
G01X384830Y-4750000D02*
Y-4865170D01*
X209830Y-5040170D01*
Y-5100000D01*
G01X384830Y-4750000D02*
Y-4500000D01*
G01X675000Y-4650000D02*
X648660D01*
X565170Y-4733490D01*
Y-4750000D01*
G01X675000Y-4400000D02*
X648660D01*
X565170Y-4483490D01*
Y-4500000D01*
G01X625000Y-3725000D02*
X975000D01*
X1200000Y-3500000D01*
M02*
